<svg width="54" height="65" viewBox="0 0 54 65" fill="none" xmlns="http://www.w3.org/2000/svg">
<path d="M27.2775 35.0938C31.5707 35.0938 41.6646 29.927 41.6646 17.5467C41.6646 15.8198 41.6226 14.1516 41.4803 12.5755C41.2466 9.47352 40.6113 6.72445 39.0294 4.61762C37.0004 1.75056 33.4505 0 27.2775 0C21.1056 0 17.5559 1.74985 15.5269 4.61602C13.944 6.72338 13.3083 9.47317 13.0748 12.5762C12.9326 14.1522 12.8906 15.8202 12.8906 17.5469C12.8904 29.927 22.9843 35.0938 27.2775 35.0938ZM31.9736 6.42833C31.5547 7.48735 31.3447 8.01695 30.9255 9.07579C28.2189 8.31111 26.3358 8.31111 23.6292 9.07579C23.2102 8.01695 23.0002 7.48735 22.5809 6.42833C25.9658 5.40365 28.5892 5.40383 31.9736 6.42833ZM15.0307 14.8624C15.1966 15.2249 15.9008 16.6188 16.9907 16.7495C18.2437 16.8998 20.3235 12.3121 27.2775 12.3009C34.2314 12.3121 36.3113 16.8998 37.5643 16.7495C38.6543 16.6187 39.3585 15.2249 39.5243 14.8624C39.558 15.7508 39.5704 16.6502 39.5704 17.5469C39.5704 23.5983 36.8984 27.3478 34.6567 29.4276C31.8323 32.0484 28.6964 32.9996 27.2777 32.9996C25.859 32.9996 22.7231 32.0484 19.8987 29.4276C17.6568 27.3478 14.985 23.5983 14.985 17.5469C14.9848 16.6502 14.9971 15.7508 15.0307 14.8624Z" fill="#19456B" fill-opacity="0.54"/>
<path d="M53.9871 53.0893C53.2525 48.5222 51.7406 42.6389 48.7075 40.5483C46.6361 39.12 39.4097 35.2592 36.3237 33.6106L36.2716 33.5829C35.9189 33.3944 35.488 33.4323 35.1737 33.6792C33.5572 34.9482 31.7865 35.8034 29.9109 36.2211C29.5795 36.2949 29.3074 36.5304 29.1873 36.8477L27.2773 41.8823L25.3671 36.8477C25.247 36.5304 24.9751 36.2949 24.6435 36.2211C22.768 35.8034 20.9974 34.9482 19.381 33.6792C19.066 33.4322 18.6355 33.3944 18.2828 33.5829C15.2337 35.2123 7.91879 39.1519 5.85628 40.5422C2.36459 42.8943 0.838076 51.4069 0.567404 53.0894C0.54071 53.2564 0.556193 53.427 0.612427 53.5865C0.686457 53.7954 1.84122 56.7865 7.61627 59.1914C7.94923 58.7718 8.39269 58.4536 8.89151 58.2746C8.27186 58.0546 7.73408 57.6234 7.39009 57.0447C6.87757 56.1823 6.85853 55.1002 7.33919 54.2227C8.81979 51.5124 11.6554 49.8261 14.7429 49.822C17.6148 49.822 20.2181 51.249 21.764 53.5685H32.7841C33.0867 53.1167 33.4337 52.694 33.8231 52.3034C35.4158 50.7061 37.5347 49.8248 39.7898 49.8216H39.7915H39.7933C42.8784 49.8216 45.7175 51.4987 47.2033 54.1997C47.6848 55.0763 47.6686 56.1563 47.1591 57.0216C46.8171 57.6005 46.2807 58.0331 45.6618 58.255C46.1693 58.4347 46.6197 58.7577 46.9552 59.1846C52.7155 56.781 53.8685 53.7954 53.9425 53.5868C53.9985 53.4268 54.014 53.256 53.9871 53.0893Z" fill="#19456B" fill-opacity="0.54"/>
<path d="M44.7142 60.5823H44.7135L39.4039 60.5896C39.3098 60.366 39.129 59.7453 39.1272 58.2646C39.1247 56.7836 39.3034 56.1618 39.3974 55.9378L44.7054 55.9299C44.8323 55.9292 44.9494 55.8625 45.0137 55.7534C45.0783 55.644 45.08 55.5094 45.0192 55.3984C43.9719 53.4946 41.9735 52.3123 39.7928 52.3123C38.2029 52.3146 36.7095 52.936 35.5871 54.0617C35.0088 54.6415 34.5674 55.3206 34.2733 56.0593H20.2738C19.3948 53.8678 17.2499 52.3128 14.7425 52.3128C12.5684 52.3158 10.5693 53.5049 9.52519 55.4165C9.46433 55.5276 9.46682 55.6626 9.53142 55.7714C9.59602 55.8801 9.71311 55.9465 9.83964 55.9465H9.84L15.1495 55.9381C15.244 56.1616 15.4245 56.7823 15.4262 58.2637C15.4287 59.7448 15.2501 60.3662 15.1561 60.5899L9.848 60.5979C9.72148 60.5981 9.60438 60.6654 9.53978 60.7741C9.47554 60.8832 9.4734 61.0183 9.53462 61.1293C10.5815 63.0329 12.5807 64.2161 14.752 64.2161H14.7607C16.3509 64.2136 17.844 63.5922 18.9667 62.4663C19.545 61.8861 19.9862 61.2069 20.2802 60.4682H34.2793C35.1584 62.6604 37.3017 64.2152 39.8029 64.2156C39.8029 64.2156 39.8109 64.2156 39.8113 64.2156C41.985 64.2126 43.9845 63.0228 45.0286 61.1124C45.0895 61.0012 45.087 60.8659 45.0224 60.7574C44.9578 60.6486 44.8407 60.5823 44.7142 60.5823Z" fill="#19456B" fill-opacity="0.54"/>
</svg>
